<svg id="Layer_1" data-name="Layer 1" xmlns="http://www.w3.org/2000/svg" viewBox="0 0 167.5 345.22"><defs><style>.cls-1{fill:#08222e;stroke:#9fecf4;stroke-miterlimit:10;stroke-width:2px;}</style></defs><title>carrot</title><path class="cls-1" d="M593.08,546.54c-3-1.5-6.28-3.24-7.63-6.34-2.11-4.86,1.49-10.33,1.19-15.62a33.67,33.67,0,0,0-1.32-6.08,28.8,28.8,0,0,1,1.62-18.31,6.36,6.36,0,0,0,.79-2.72c-.05-1.26-.91-2.32-1.53-3.43a9.84,9.84,0,0,1,4.14-13.11,6.38,6.38,0,0,1,.79-6.8c-1.72-4.55-.7-12.06,2.76-15.47a5.36,5.36,0,0,0,1.67-2.16c.42-1.47-.72-2.88-1.29-4.3-2-4.87,2.72-9.62,4.63-14.51a28.78,28.78,0,0,0,1.4-6.24l2.59-17.59c1.1-7.42,2.45-15.38,7.71-20.71,1.06-14.61,2.2-30,8.06-43.44s17.45-25.28,32-27.36a42.11,42.11,0,0,1,19.31,2.24c15.43,5.22,29.39,19.29,28.22,35.53-.86,12-9.39,21.84-14,32.94-3.76,9.06-5.08,19.41-11.29,27-.6,3.84-2.27,7.42-3.91,10.93l-12.12,25.93c-2.16,4.62-5.26,9.9-10.35,10.17,2.81,3.08,1.58,8.1-.77,11.54s-5.65,6.34-7,10.27c-.7,2-.83,4.21-1.62,6.19a19.83,19.83,0,0,1-2.83,4.54C621.88,515.84,608.14,532.8,593.08,546.54Z" transform="translate(-583.51 -202.52)"/><path class="cls-1" d="M660.83,322.3c-3.17-7.24,0-16.8-5.14-22.78-1.62-1.88-3.86-3.09-6-4.39a64.52,64.52,0,0,1-12-9.47,2.31,2.31,0,0,1-.83-1.39c0-1.09,1.31-1.61,2.39-1.72a18.91,18.91,0,0,1,9.05,1.35,21.23,21.23,0,0,0-11.89-11c-2.57-.94-5.32-1.37-7.82-2.48s-4.83-3.15-5.25-5.86l7.13,1a15.85,15.85,0,0,0-6.32-6.1,8.48,8.48,0,0,1,10.72.2,5.94,5.94,0,0,0-5.77-6.57c-2.8-2.17-5.55-9.77-4.42-13.12a14.67,14.67,0,0,1,7-7.72,13.22,13.22,0,0,1,5.43-1.8c4.44-.3,8.6,2.69,11,6.46s3.29,8.26,4.18,12.63c.93-2.45,2-5,4.11-6.57,2.73-1.95,6.94-.18,10,.22-3.91-7.36.84-17.82,9-19.72l1.66,3.71c2.77-.86,3.75-4.15,5.24-6.64s5.51-4.25,7-1.74c-.58-3.52,2-7.36,5.58-7.8s7.13,3,6.56,6.52l8.34-13,2.77,6.06c.41-3.56,5.07-5.31,8.41-4s5.45,4.59,7,7.81c2.38,4.85,3.84,11.26.15,15.21-3.36,3.61-10.29,4.3-11,9.18,2.11,1,4.43-.5,6.56-1.39s5.41-.61,5.73,1.68l6.72-2.3c3.06,1.85,1,6.55-1.29,9.28s-4.51,7.3-1.56,9.32a14.93,14.93,0,0,1,7.44-3.91,15.06,15.06,0,0,1,3.11,6.46l-2.3,2.31a7.1,7.1,0,0,0,7.18,1.57,42.53,42.53,0,0,1-8.21,9.44l3.89,3.05c-4.66,2-5.75,7.9-8.34,12.24-5.12,8.58-16.33,10.82-26.23,12.23l2.11,3.17c-6.58,7.24-21.41-1-27.37,6.76a15.43,15.43,0,0,0-2.22,5.14L678,328.27" transform="translate(-583.51 -202.52)"/><path class="cls-1" d="M663.14,302.26a5.19,5.19,0,0,1,.27-2.57c1-2,4.26-2.27,5-4.42.44-1.38-.45-2.78-1.07-4.09s-.82-3.2.44-3.92a3.7,3.7,0,0,1,3.29,3,10.78,10.78,0,0,1-.25,4.75l-2.1,10.37c-.59,2.92-.95,6.47-2.59,8.68C662.83,311.5,663.4,306,663.14,302.26Z" transform="translate(-583.51 -202.52)"/><path class="cls-1" d="M671.71,324.07a67.12,67.12,0,0,1,6.39-11.13,14.28,14.28,0,0,1-2.64,13.12" transform="translate(-583.51 -202.52)"/><path class="cls-1" d="M672.63,312.73a36.08,36.08,0,0,1,6.67-15.4c1.21-1.59,2.73-3.19,4.71-3.43-2.37-3.87-3.16-11.49-.21-15.37,2.49-3.28,7.24-1.68,8.94-6.15,1.6-4.21,2-6.57,5.61-9.4l14.3-11a20.9,20.9,0,0,0,5.58-5.59c1.34-2.28,1.69-5.35.14-7.51" transform="translate(-583.51 -202.52)"/><path class="cls-1" d="M684.69,276.43a23.64,23.64,0,0,1,11.45-11.71" transform="translate(-583.51 -202.52)"/></svg>